<svg viewBox="0 0 1280 776" width="1280" height="776" xmlns="http://www.w3.org/2000/svg" font-family="Inter, 'Segoe UI', system-ui, -apple-system, sans-serif">
<defs>
  <linearGradient id="bg" x1="0" y1="0" x2="0" y2="1">
    <stop offset="0" stop-color="#0c0a09"/>
    <stop offset="1" stop-color="#1c1917"/>
  </linearGradient>
  <radialGradient id="glow" cx="0.5" cy="0.0" r="0.8">
    <stop offset="0" stop-color="#ea7a2c" stop-opacity="0.22"/>
    <stop offset="1" stop-color="#ea7a2c" stop-opacity="0"/>
  </radialGradient>
  <filter id="soft" x="-20%" y="-20%" width="140%" height="140%">
    <feDropShadow dx="0" dy="6" stdDeviation="10" flood-color="#000000" flood-opacity="0.45"/>
  </filter>
</defs>
<rect width="1280" height="776" fill="url(#bg)"/>
<rect width="1280" height="360" fill="url(#glow)"/>
<rect x="542.0" y="28" width="196" height="34" rx="17" fill="#ea7a2c"/>
<text x="640.0" y="51" font-size="15" font-weight="700" fill="#1c1917" text-anchor="middle">4 repos · 1 server</text>
<rect x="36.0" y="88" width="287.0" height="588" rx="18" fill="#ffffff" fill-opacity="0.035" stroke="#ffffff" stroke-opacity="0.09" stroke-width="1" filter="url(#soft)"/>
<rect x="36.0" y="88" width="287.0" height="5" rx="2.5" fill="#a78bfa"/>
<circle cx="62.0" cy="130" r="6" fill="#a78bfa"/>
<text x="80.0" y="136" font-size="22" font-weight="700" fill="#fafaf9">Marketing Site</text>
<text x="62.0" y="160" font-size="12.5" font-family="'SF Mono', 'JetBrains Mono', Menlo, monospace" fill="#a78bfa" fill-opacity="0.85">timesheet-presentation · Vite</text>
<line x1="56.0" y1="172" x2="303.0" y2="172" stroke="#ffffff" stroke-opacity="0.08" stroke-width="1"/>
<rect x="56.0" y="184.0" width="247.0" height="30" rx="9" fill="#292524" stroke="#a78bfa" stroke-opacity="0.28" stroke-width="1"/>
<circle cx="71.0" cy="199.0" r="3" fill="#a78bfa"/>
<text x="85.0" y="203.5" font-size="14" font-weight="500" fill="#e7e5e4">Vite 5</text>
<rect x="56.0" y="222.0" width="247.0" height="30" rx="9" fill="#292524" stroke="#a78bfa" stroke-opacity="0.28" stroke-width="1"/>
<circle cx="71.0" cy="237.0" r="3" fill="#a78bfa"/>
<text x="85.0" y="241.5" font-size="14" font-weight="500" fill="#e7e5e4">vite-react-ssg</text>
<rect x="56.0" y="260.0" width="247.0" height="30" rx="9" fill="#292524" stroke="#a78bfa" stroke-opacity="0.28" stroke-width="1"/>
<circle cx="71.0" cy="275.0" r="3" fill="#a78bfa"/>
<text x="85.0" y="279.5" font-size="14" font-weight="500" fill="#e7e5e4">React 18</text>
<rect x="56.0" y="298.0" width="247.0" height="30" rx="9" fill="#292524" stroke="#a78bfa" stroke-opacity="0.28" stroke-width="1"/>
<circle cx="71.0" cy="313.0" r="3" fill="#a78bfa"/>
<text x="85.0" y="317.5" font-size="14" font-weight="500" fill="#e7e5e4">React Router 6</text>
<rect x="56.0" y="336.0" width="247.0" height="30" rx="9" fill="#292524" stroke="#a78bfa" stroke-opacity="0.28" stroke-width="1"/>
<circle cx="71.0" cy="351.0" r="3" fill="#a78bfa"/>
<text x="85.0" y="355.5" font-size="14" font-weight="500" fill="#e7e5e4">Tailwind CSS v4</text>
<rect x="56.0" y="374.0" width="247.0" height="30" rx="9" fill="#292524" stroke="#a78bfa" stroke-opacity="0.28" stroke-width="1"/>
<circle cx="71.0" cy="389.0" r="3" fill="#a78bfa"/>
<text x="85.0" y="393.5" font-size="14" font-weight="500" fill="#e7e5e4">TypeScript</text>
<rect x="56.0" y="412.0" width="247.0" height="30" rx="9" fill="#292524" stroke="#a78bfa" stroke-opacity="0.28" stroke-width="1"/>
<circle cx="71.0" cy="427.0" r="3" fill="#a78bfa"/>
<text x="85.0" y="431.5" font-size="14" font-weight="500" fill="#e7e5e4">Hand-rolled i18n</text>
<rect x="56.0" y="450.0" width="247.0" height="30" rx="9" fill="#292524" stroke="#a78bfa" stroke-opacity="0.28" stroke-width="1"/>
<circle cx="71.0" cy="465.0" r="3" fill="#a78bfa"/>
<text x="85.0" y="469.5" font-size="14" font-weight="500" fill="#e7e5e4">vanilla-cookieconsent</text>
<rect x="56.0" y="488.0" width="247.0" height="30" rx="9" fill="#292524" stroke="#a78bfa" stroke-opacity="0.28" stroke-width="1"/>
<circle cx="71.0" cy="503.0" r="3" fill="#a78bfa"/>
<text x="85.0" y="507.5" font-size="14" font-weight="500" fill="#e7e5e4">Geist fonts</text>
<rect x="343.0" y="88" width="287.0" height="588" rx="18" fill="#ffffff" fill-opacity="0.035" stroke="#ffffff" stroke-opacity="0.09" stroke-width="1" filter="url(#soft)"/>
<rect x="343.0" y="88" width="287.0" height="5" rx="2.5" fill="#60a5fa"/>
<circle cx="369.0" cy="130" r="6" fill="#60a5fa"/>
<text x="387.0" y="136" font-size="22" font-weight="700" fill="#fafaf9">Product App</text>
<text x="369.0" y="160" font-size="12.5" font-family="'SF Mono', 'JetBrains Mono', Menlo, monospace" fill="#60a5fa" fill-opacity="0.85">timesheet-ui-react · Next.js</text>
<line x1="363.0" y1="172" x2="610.0" y2="172" stroke="#ffffff" stroke-opacity="0.08" stroke-width="1"/>
<rect x="363.0" y="184.0" width="247.0" height="30" rx="9" fill="#292524" stroke="#60a5fa" stroke-opacity="0.28" stroke-width="1"/>
<circle cx="378.0" cy="199.0" r="3" fill="#60a5fa"/>
<text x="392.0" y="203.5" font-size="14" font-weight="500" fill="#e7e5e4">Next.js 15</text>
<rect x="363.0" y="222.0" width="247.0" height="30" rx="9" fill="#292524" stroke="#60a5fa" stroke-opacity="0.28" stroke-width="1"/>
<circle cx="378.0" cy="237.0" r="3" fill="#60a5fa"/>
<text x="392.0" y="241.5" font-size="14" font-weight="500" fill="#e7e5e4">React 19</text>
<rect x="363.0" y="260.0" width="247.0" height="30" rx="9" fill="#292524" stroke="#60a5fa" stroke-opacity="0.28" stroke-width="1"/>
<circle cx="378.0" cy="275.0" r="3" fill="#60a5fa"/>
<text x="392.0" y="279.5" font-size="14" font-weight="500" fill="#e7e5e4">next-intl</text>
<rect x="363.0" y="298.0" width="247.0" height="30" rx="9" fill="#292524" stroke="#60a5fa" stroke-opacity="0.28" stroke-width="1"/>
<circle cx="378.0" cy="313.0" r="3" fill="#60a5fa"/>
<text x="392.0" y="317.5" font-size="14" font-weight="500" fill="#e7e5e4">Clerk</text>
<rect x="363.0" y="336.0" width="247.0" height="30" rx="9" fill="#292524" stroke="#60a5fa" stroke-opacity="0.28" stroke-width="1"/>
<circle cx="378.0" cy="351.0" r="3" fill="#60a5fa"/>
<text x="392.0" y="355.5" font-size="14" font-weight="500" fill="#e7e5e4">Keycloak</text>
<rect x="363.0" y="374.0" width="247.0" height="30" rx="9" fill="#292524" stroke="#60a5fa" stroke-opacity="0.28" stroke-width="1"/>
<circle cx="378.0" cy="389.0" r="3" fill="#60a5fa"/>
<text x="392.0" y="393.5" font-size="14" font-weight="500" fill="#e7e5e4">Radix + shadcn</text>
<rect x="363.0" y="412.0" width="247.0" height="30" rx="9" fill="#292524" stroke="#60a5fa" stroke-opacity="0.28" stroke-width="1"/>
<circle cx="378.0" cy="427.0" r="3" fill="#60a5fa"/>
<text x="392.0" y="431.5" font-size="14" font-weight="500" fill="#e7e5e4">Tailwind CSS v4</text>
<rect x="363.0" y="450.0" width="247.0" height="30" rx="9" fill="#292524" stroke="#60a5fa" stroke-opacity="0.28" stroke-width="1"/>
<circle cx="378.0" cy="465.0" r="3" fill="#60a5fa"/>
<text x="392.0" y="469.5" font-size="14" font-weight="500" fill="#e7e5e4">Stripe.js</text>
<rect x="363.0" y="488.0" width="247.0" height="30" rx="9" fill="#292524" stroke="#60a5fa" stroke-opacity="0.28" stroke-width="1"/>
<circle cx="378.0" cy="503.0" r="3" fill="#60a5fa"/>
<text x="392.0" y="507.5" font-size="14" font-weight="500" fill="#e7e5e4">pdf-lib</text>
<rect x="363.0" y="526.0" width="247.0" height="30" rx="9" fill="#292524" stroke="#60a5fa" stroke-opacity="0.28" stroke-width="1"/>
<circle cx="378.0" cy="541.0" r="3" fill="#60a5fa"/>
<text x="392.0" y="545.5" font-size="14" font-weight="500" fill="#e7e5e4">xlsx-js-style</text>
<rect x="363.0" y="564.0" width="247.0" height="30" rx="9" fill="#292524" stroke="#60a5fa" stroke-opacity="0.28" stroke-width="1"/>
<circle cx="378.0" cy="579.0" r="3" fill="#60a5fa"/>
<text x="392.0" y="583.5" font-size="14" font-weight="500" fill="#e7e5e4">next-themes</text>
<rect x="363.0" y="602.0" width="247.0" height="30" rx="9" fill="#292524" stroke="#60a5fa" stroke-opacity="0.28" stroke-width="1"/>
<circle cx="378.0" cy="617.0" r="3" fill="#60a5fa"/>
<text x="392.0" y="621.5" font-size="14" font-weight="500" fill="#e7e5e4">TanStack Table</text>
<rect x="650.0" y="88" width="287.0" height="588" rx="18" fill="#ffffff" fill-opacity="0.035" stroke="#ffffff" stroke-opacity="0.09" stroke-width="1" filter="url(#soft)"/>
<rect x="650.0" y="88" width="287.0" height="5" rx="2.5" fill="#22d3ee"/>
<circle cx="676.0" cy="130" r="6" fill="#22d3ee"/>
<text x="694.0" y="136" font-size="22" font-weight="700" fill="#fafaf9">Backend</text>
<text x="676.0" y="160" font-size="12.5" font-family="'SF Mono', 'JetBrains Mono', Menlo, monospace" fill="#22d3ee" fill-opacity="0.85">timesheet-services · Go</text>
<line x1="670.0" y1="172" x2="917.0" y2="172" stroke="#ffffff" stroke-opacity="0.08" stroke-width="1"/>
<rect x="670.0" y="184.0" width="247.0" height="30" rx="9" fill="#292524" stroke="#22d3ee" stroke-opacity="0.28" stroke-width="1"/>
<circle cx="685.0" cy="199.0" r="3" fill="#22d3ee"/>
<text x="699.0" y="203.5" font-size="14" font-weight="500" fill="#e7e5e4">Go 1.26</text>
<rect x="670.0" y="222.0" width="247.0" height="30" rx="9" fill="#292524" stroke="#22d3ee" stroke-opacity="0.28" stroke-width="1"/>
<circle cx="685.0" cy="237.0" r="3" fill="#22d3ee"/>
<text x="699.0" y="241.5" font-size="14" font-weight="500" fill="#e7e5e4">Fiber v3</text>
<rect x="670.0" y="260.0" width="247.0" height="30" rx="9" fill="#292524" stroke="#22d3ee" stroke-opacity="0.28" stroke-width="1"/>
<circle cx="685.0" cy="275.0" r="3" fill="#22d3ee"/>
<text x="699.0" y="279.5" font-size="14" font-weight="500" fill="#e7e5e4">GORM</text>
<rect x="670.0" y="298.0" width="247.0" height="30" rx="9" fill="#292524" stroke="#22d3ee" stroke-opacity="0.28" stroke-width="1"/>
<circle cx="685.0" cy="313.0" r="3" fill="#22d3ee"/>
<text x="699.0" y="317.5" font-size="14" font-weight="500" fill="#e7e5e4">PostgreSQL</text>
<rect x="670.0" y="336.0" width="247.0" height="30" rx="9" fill="#292524" stroke="#22d3ee" stroke-opacity="0.28" stroke-width="1"/>
<circle cx="685.0" cy="351.0" r="3" fill="#22d3ee"/>
<text x="699.0" y="355.5" font-size="14" font-weight="500" fill="#e7e5e4">JWT auth</text>
<rect x="670.0" y="374.0" width="247.0" height="30" rx="9" fill="#292524" stroke="#22d3ee" stroke-opacity="0.28" stroke-width="1"/>
<circle cx="685.0" cy="389.0" r="3" fill="#22d3ee"/>
<text x="699.0" y="393.5" font-size="14" font-weight="500" fill="#e7e5e4">MinIO (S3)</text>
<rect x="670.0" y="412.0" width="247.0" height="30" rx="9" fill="#292524" stroke="#22d3ee" stroke-opacity="0.28" stroke-width="1"/>
<circle cx="685.0" cy="427.0" r="3" fill="#22d3ee"/>
<text x="699.0" y="431.5" font-size="14" font-weight="500" fill="#e7e5e4">AWS SES</text>
<rect x="670.0" y="450.0" width="247.0" height="30" rx="9" fill="#292524" stroke="#22d3ee" stroke-opacity="0.28" stroke-width="1"/>
<circle cx="685.0" cy="465.0" r="3" fill="#22d3ee"/>
<text x="699.0" y="469.5" font-size="14" font-weight="500" fill="#e7e5e4">Stripe</text>
<rect x="670.0" y="488.0" width="247.0" height="30" rx="9" fill="#292524" stroke="#22d3ee" stroke-opacity="0.28" stroke-width="1"/>
<circle cx="685.0" cy="503.0" r="3" fill="#22d3ee"/>
<text x="699.0" y="507.5" font-size="14" font-weight="500" fill="#e7e5e4">Svix webhooks</text>
<rect x="670.0" y="526.0" width="247.0" height="30" rx="9" fill="#292524" stroke="#22d3ee" stroke-opacity="0.28" stroke-width="1"/>
<circle cx="685.0" cy="541.0" r="3" fill="#22d3ee"/>
<text x="699.0" y="545.5" font-size="14" font-weight="500" fill="#e7e5e4">Testcontainers</text>
<rect x="670.0" y="564.0" width="247.0" height="30" rx="9" fill="#292524" stroke="#22d3ee" stroke-opacity="0.28" stroke-width="1"/>
<circle cx="685.0" cy="579.0" r="3" fill="#22d3ee"/>
<text x="699.0" y="583.5" font-size="14" font-weight="500" fill="#e7e5e4">Viper</text>
<rect x="670.0" y="602.0" width="247.0" height="30" rx="9" fill="#292524" stroke="#22d3ee" stroke-opacity="0.28" stroke-width="1"/>
<circle cx="685.0" cy="617.0" r="3" fill="#22d3ee"/>
<text x="699.0" y="621.5" font-size="14" font-weight="500" fill="#e7e5e4">Validator</text>
<rect x="957.0" y="88" width="287.0" height="588" rx="18" fill="#ffffff" fill-opacity="0.035" stroke="#ffffff" stroke-opacity="0.09" stroke-width="1" filter="url(#soft)"/>
<rect x="957.0" y="88" width="287.0" height="5" rx="2.5" fill="#f59e0b"/>
<circle cx="983.0" cy="130" r="6" fill="#f59e0b"/>
<text x="1001.0" y="136" font-size="22" font-weight="700" fill="#fafaf9">Infrastructure</text>
<text x="983.0" y="160" font-size="12.5" font-family="'SF Mono', 'JetBrains Mono', Menlo, monospace" fill="#f59e0b" fill-opacity="0.85">timesheet-infra · IaC</text>
<line x1="977.0" y1="172" x2="1224.0" y2="172" stroke="#ffffff" stroke-opacity="0.08" stroke-width="1"/>
<rect x="977.0" y="184.0" width="247.0" height="30" rx="9" fill="#292524" stroke="#f59e0b" stroke-opacity="0.28" stroke-width="1"/>
<circle cx="992.0" cy="199.0" r="3" fill="#f59e0b"/>
<text x="1006.0" y="203.5" font-size="14" font-weight="500" fill="#e7e5e4">Terraform</text>
<rect x="977.0" y="222.0" width="247.0" height="30" rx="9" fill="#292524" stroke="#f59e0b" stroke-opacity="0.28" stroke-width="1"/>
<circle cx="992.0" cy="237.0" r="3" fill="#f59e0b"/>
<text x="1006.0" y="241.5" font-size="14" font-weight="500" fill="#e7e5e4">Ansible</text>
<rect x="977.0" y="260.0" width="247.0" height="30" rx="9" fill="#292524" stroke="#f59e0b" stroke-opacity="0.28" stroke-width="1"/>
<circle cx="992.0" cy="275.0" r="3" fill="#f59e0b"/>
<text x="1006.0" y="279.5" font-size="14" font-weight="500" fill="#e7e5e4">Hetzner Cloud</text>
<rect x="977.0" y="298.0" width="247.0" height="30" rx="9" fill="#292524" stroke="#f59e0b" stroke-opacity="0.28" stroke-width="1"/>
<circle cx="992.0" cy="313.0" r="3" fill="#f59e0b"/>
<text x="1006.0" y="317.5" font-size="14" font-weight="500" fill="#e7e5e4">Docker</text>
<rect x="977.0" y="336.0" width="247.0" height="30" rx="9" fill="#292524" stroke="#f59e0b" stroke-opacity="0.28" stroke-width="1"/>
<circle cx="992.0" cy="351.0" r="3" fill="#f59e0b"/>
<text x="1006.0" y="355.5" font-size="14" font-weight="500" fill="#e7e5e4">OpenResty + Lua</text>
<rect x="977.0" y="374.0" width="247.0" height="30" rx="9" fill="#292524" stroke="#f59e0b" stroke-opacity="0.28" stroke-width="1"/>
<circle cx="992.0" cy="389.0" r="3" fill="#f59e0b"/>
<text x="1006.0" y="393.5" font-size="14" font-weight="500" fill="#e7e5e4">LUKS</text>
<rect x="977.0" y="412.0" width="247.0" height="30" rx="9" fill="#292524" stroke="#f59e0b" stroke-opacity="0.28" stroke-width="1"/>
<circle cx="992.0" cy="427.0" r="3" fill="#f59e0b"/>
<text x="1006.0" y="431.5" font-size="14" font-weight="500" fill="#e7e5e4">certbot TLS + HSTS</text>
<rect x="977.0" y="450.0" width="247.0" height="30" rx="9" fill="#292524" stroke="#f59e0b" stroke-opacity="0.28" stroke-width="1"/>
<circle cx="992.0" cy="465.0" r="3" fill="#f59e0b"/>
<text x="1006.0" y="469.5" font-size="14" font-weight="500" fill="#e7e5e4">Loki</text>
<rect x="977.0" y="488.0" width="247.0" height="30" rx="9" fill="#292524" stroke="#f59e0b" stroke-opacity="0.28" stroke-width="1"/>
<circle cx="992.0" cy="503.0" r="3" fill="#f59e0b"/>
<text x="1006.0" y="507.5" font-size="14" font-weight="500" fill="#e7e5e4">Promtail</text>
<rect x="977.0" y="526.0" width="247.0" height="30" rx="9" fill="#292524" stroke="#f59e0b" stroke-opacity="0.28" stroke-width="1"/>
<circle cx="992.0" cy="541.0" r="3" fill="#f59e0b"/>
<text x="1006.0" y="545.5" font-size="14" font-weight="500" fill="#e7e5e4">Grafana</text>
<rect x="977.0" y="564.0" width="247.0" height="30" rx="9" fill="#292524" stroke="#f59e0b" stroke-opacity="0.28" stroke-width="1"/>
<circle cx="992.0" cy="579.0" r="3" fill="#f59e0b"/>
<text x="1006.0" y="583.5" font-size="14" font-weight="500" fill="#e7e5e4">ansible-vault</text>
<rect x="977.0" y="602.0" width="247.0" height="30" rx="9" fill="#292524" stroke="#f59e0b" stroke-opacity="0.28" stroke-width="1"/>
<circle cx="992.0" cy="617.0" r="3" fill="#f59e0b"/>
<text x="1006.0" y="621.5" font-size="14" font-weight="500" fill="#e7e5e4">systemd</text>
<rect x="36" y="700" width="1208" height="46" rx="14" fill="#ea7a2c" fill-opacity="0.10" stroke="#ea7a2c" stroke-opacity="0.35" stroke-width="1"/>
<text x="640.0" y="730" font-size="16" font-weight="600" fill="#fbbf75" text-anchor="middle">One Hetzner box   ·   one Postgres   ·   one Docker image, three apps   ·   one deploy path</text>
</svg>